<svg width="50" height="40" viewBox="0 0 50 40" fill="none" xmlns="http://www.w3.org/2000/svg">
<path d="M23.2848 2.93194L19.9938 3.49583e-06C7.60414 7.53927 1.79649 16.1256 0.247777 25.7592C-0.913754 33.7173 1.99007 40 9.34643 40C14.5733 40 19.6066 36.2304 20.7681 29.9476C21.7361 22.6178 17.8643 18.2199 13.0246 17.1728C14.9605 10.0524 23.0912 2.93194 23.2848 2.93194ZM39.9334 16.7539C42.0629 9.84295 49.8064 2.93194 50 2.93194L46.709 8.16686e-06C34.3193 7.53927 28.5117 16.1257 26.963 25.7592C25.8014 33.7173 28.7053 40 36.0616 40C41.2885 40 46.3218 36.2304 47.2898 29.9476C48.4513 22.6178 44.7731 17.8011 39.9334 16.7539Z" fill="#D1995B"/>
</svg>
